# xmcd CD database file
#
# Track frame offsets:
#	150
#	28098
#	57645
#	84400
#	116548
#	142225
#	171513
#	191565
#
# Disc length: 2923 seconds
#
# Revision: 2
# Processed by: cddbd v1.5PL3 Copyright (c) Steve Scherf et al.
# Submitted via: CDex 1.50
#
DISCID=760b6908
DTITLE=Milt Jackson - High Fly, Disc 2
DYEAR=1900
DGENRE=Jazz
TTITLE0=Goodbye
TTITLE1=Bye Bye, Blackbird
TTITLE2=Scrapple From The Apple
TTITLE3=I Thought About You
TTITLE4=High Fly
TTITLE5=If You Never Come To Me
TTITLE6=Li'l Darlin'
TTITLE7=Good Bait
EXTD=
EXTT0=
EXTT1=
EXTT2=
EXTT3=
EXTT4=
EXTT5=
EXTT6=
EXTT7=
PLAYORDER=
